<svg xmlns="http://www.w3.org/2000/svg" width="240" height="240" fill="none" fill-rule="evenodd" xmlns:v="https://vecta.io/nano"><g fill="#fff308"><path d="M120 207c48.049 0 87-38.951 87-87s-38.951-87-87-87-87 38.951-87 87 38.951 87 87 87zm90-87c0 49.706-40.294 90-90 90s-90-40.294-90-90 40.294-90 90-90 90 40.294 90 90z" fill-opacity=".2"/><path d="M119.5 195c41.698 0 75.5-33.802 75.5-75.5S161.198 44 119.5 44 44 77.803 44 119.5 77.803 195 119.5 195zm79.5-75.5c0 43.907-35.593 79.5-79.5 79.5S40 163.407 40 119.5 75.593 40 119.5 40 199 75.593 199 119.5z" fill-opacity=".6"/></g><path d="M119.5 187c37.279 0 67.5-30.221 67.5-67.5S156.779 52 119.5 52 52 82.221 52 119.5 82.221 187 119.5 187z" fill="#ffec65"/></svg>