<svg xmlns="http://www.w3.org/2000/svg" width="240" height="240" fill="none" xmlns:v="https://vecta.io/nano"><path d="M181.381 174.958c2.483-2.56.084-6.624-3.474-6.349l-6.541.252c-46.212 0-83.674-37.433-83.674-83.609 0-14.202 3.544-27.577 9.796-39.291 1.682-3.151-1.09-6.978-4.432-5.713C61.902 52.036 39.75 82.164 39.75 117.47c0 45.58 36.92 82.53 82.464 82.53 23.21 0 44.181-9.597 59.167-25.042z" fill="#303030" fill-opacity=".7"/><path d="M147.438 64.766l-2.483-3.608c.032.033-7.495-9.638-7.495-9.638-.927-1.19-.692-1.388.513-.451l9.602 7.468c2.153 1.538 3.02 2.079 3.599 2.484.571-.4 1.416-.918 3.608-2.484-.033.033 9.637-7.495 9.637-7.495 1.19-.926 1.389-.692.451.514l-7.468 9.602c-1.538 2.153-2.078 3.02-2.484 3.599.4.571.918 1.416 2.484 3.608-.033-.033 7.495 9.638 7.495 9.638.926 1.19.692 1.388-.514.451l-9.601-7.468c-2.154-1.538-3.021-2.078-3.599-2.484-.571.4-1.416.918-3.608 2.484.033-.033-9.638 7.495-9.638 7.495-1.19.926-1.388.692-.451-.514l7.469-9.602c1.538-2.153 2.078-3.02 2.483-3.599zm42.74 50.695c.016.015-3.493-4.493-3.493-4.493-.435-.559-.328-.654.234-.217l4.483 3.486 1.68 1.16 1.684-1.16c-.016.016 4.492-3.493 4.492-3.493.559-.435.655-.328.217.235l-3.486 4.482-1.16 1.68 1.16 1.684a4103.85 4103.85 0 0 0 3.494 4.492c.435.559.328.655-.235.217l-4.482-3.486-1.68-1.16-1.684 1.16c.015-.015-4.493 3.494-4.493 3.494-.559.435-.654.328-.217-.235l3.486-4.482 1.16-1.68-1.16-1.684z" fill-rule="evenodd" fill="#fff"/></svg>