<svg xmlns="http://www.w3.org/2000/svg" width="240" height="240" fill="none" xmlns:v="https://vecta.io/nano"><g fill-rule="evenodd"><g fill="#fff308"><path d="M120 207c48.049 0 87-38.951 87-87s-38.951-87-87-87-87 38.951-87 87 38.951 87 87 87zm90-87c0 49.706-40.294 90-90 90s-90-40.294-90-90 40.294-90 90-90 90 40.294 90 90z" fill-opacity=".2"/><path d="M119.5 195c41.698 0 75.5-33.802 75.5-75.5S161.198 44 119.5 44 44 77.803 44 119.5 77.803 195 119.5 195zm79.5-75.5c0 43.907-35.593 79.5-79.5 79.5S40 163.407 40 119.5 75.593 40 119.5 40 199 75.593 199 119.5z" fill-opacity=".6"/></g><path d="M119.5 187c37.279 0 67.5-30.221 67.5-67.5S156.779 52 119.5 52 52 82.221 52 119.5 82.221 187 119.5 187z" fill="#ffec65"/></g><path d="M209.144 91.353l.023-1.353c0-22.091-17.946-40-40.084-40-17.561 0-32.484 11.27-37.904 26.957a28.09 28.09 0 0 0-13.012-3.173C102.611 73.784 90 86.368 90 101.892S102.611 130 118.167 130h50.97 30.28c11.368 0 20.583-9.196 20.583-20.541 0-7.833-4.394-14.642-10.856-18.106zM93.32 162.599l.014-.837C93.333 148.086 82.29 137 68.667 137c-10.807 0-19.99 6.976-23.326 16.687-2.395-1.254-5.119-1.964-8.008-1.964-9.573 0-17.333 7.791-17.333 17.401s7.76 17.4 17.333 17.4H68.7h18.633c6.996 0 12.667-5.693 12.667-12.716a12.72 12.72 0 0 0-6.68-11.209z" fill="#fff"/></svg>