<svg xmlns="http://www.w3.org/2000/svg" width="240" height="240" fill="none" xmlns:v="https://vecta.io/nano"><path d="M194.906 59.643l.011-.643c0-10.493-8.421-19-18.809-19-8.24 0-15.242 5.353-17.785 12.804-1.827-.963-3.904-1.507-6.106-1.507-7.3 0-13.217 5.978-13.217 13.351S144.917 78 152.217 78h23.917 14.208c5.334 0 9.658-4.368 9.658-9.757a9.77 9.77 0 0 0-5.094-8.601z" fill="#fff"/><path d="M181.381 174.958c2.483-2.56.084-6.624-3.474-6.349l-6.541.252c-46.212 0-83.674-37.433-83.674-83.609 0-14.202 3.544-27.577 9.796-39.291 1.682-3.151-1.09-6.978-4.432-5.713C61.902 52.036 39.75 82.164 39.75 117.47c0 45.58 36.92 82.53 82.464 82.53 23.21 0 44.181-9.597 59.167-25.042z" fill="#303030" fill-opacity=".7"/><path d="M93.32 162.599l.014-.837C93.333 148.086 82.29 137 68.667 137c-10.807 0-19.99 6.976-23.326 16.687-2.395-1.254-5.119-1.964-8.008-1.964-9.573 0-17.333 7.791-17.333 17.401s7.76 17.4 17.333 17.4H68.7h18.633c6.996 0 12.667-5.693 12.667-12.716a12.72 12.72 0 0 0-6.68-11.209z" fill="#fff"/></svg>