<svg xmlns="http://www.w3.org/2000/svg" width="240" height="240" fill="none" xmlns:v="https://vecta.io/nano"><path d="M194.969 98.133l.031-1.903c0-31.066-24.848-56.25-55.5-56.25-24.315 0-44.978 15.848-52.482 37.908C81.628 75.038 75.5 73.427 69 73.427c-21.539 0-39 17.697-39 39.527s17.461 39.527 39 39.527h70.5.075H181.5c15.74 0 28.5-12.933 28.5-28.885 0-11.016-6.083-20.591-15.031-25.463z" fill="#fff"/><path fill-rule="evenodd" d="M96.702 163.499a5 5 0 0 0-6.3 3.211l-17.037 52.433a5 5 0 1 0 9.511 3.09L99.912 169.8a5 5 0 0 0-3.21-6.301zm60.18 0c-2.626-.853-5.447.584-6.301 3.211l-17.036 52.433a5 5 0 1 0 9.51 3.09l17.037-52.433c.853-2.626-.584-5.447-3.21-6.301zm-46.348 3.211a5 5 0 0 1 6.3-3.211c2.627.854 4.064 3.675 3.211 6.301l-12.92 39.763a5 5 0 1 1-9.511-3.09l12.92-39.763zm66.231-3.211a5 5 0 0 0-6.3 3.211l-12.92 39.763a5 5 0 0 0 3.21 6.3c2.626.853 5.447-.584 6.301-3.21l12.919-39.763a5 5 0 0 0-3.21-6.301zM70.27 166.71a5 5 0 0 1 6.3-3.211c2.626.854 4.064 3.675 3.21 6.301l-8.803 27.092a5 5 0 0 1-9.51-3.09l8.803-27.092zm66.695-3.211a5 5 0 0 0-6.3 3.211l-8.803 27.092a5 5 0 1 0 9.511 3.09l8.803-27.092c.853-2.626-.584-5.447-3.211-6.301z" fill="#b4f5f2"/></svg>