<svg xmlns="http://www.w3.org/2000/svg" width="240" height="240" fill="none" fill-rule="evenodd" xmlns:v="https://vecta.io/nano"><path d="M195 96.231l-.031 1.903C203.917 103.005 210 112.58 210 123.596c0 13.883-9.664 25.478-22.546 28.253l8.931-16.655c1.482-2.467-.295-5.608-3.174-5.608h-.608-9.005a1 1 0 0 1-.936-1.353l7.188-19.05.144-.37c1.023-2.623-.912-5.453-3.727-5.453h-.631-30.365-.416a4 4 0 0 0-3.854 2.926l-.076.274-12.371 44.402-.423 1.519H69c-21.539 0-39-17.697-39-39.527s17.461-39.527 39-39.527c6.5 0 12.628 1.612 18.018 4.462 7.504-22.06 28.167-37.908 52.482-37.908 30.652 0 55.5 25.184 55.5 56.25z" fill="#fff"/><path d="M116.834 163.499a5 5 0 0 0-6.3 3.211l-12.92 39.763a5 5 0 1 0 9.511 3.09l12.92-39.763c.853-2.626-.584-5.447-3.211-6.301zm-20.132 0a5 5 0 0 0-6.3 3.211l-17.037 52.433a5 5 0 1 0 9.511 3.09L99.912 169.8a5 5 0 0 0-3.21-6.301zM70.27 166.71a5 5 0 0 1 6.3-3.211c2.626.854 4.064 3.675 3.21 6.301l-8.803 27.092a5 5 0 0 1-9.51-3.09l8.803-27.092zm66.695-3.211a5 5 0 0 0-6.3 3.211l-8.803 27.092a5 5 0 1 0 9.511 3.09l8.803-27.092c.853-2.626-.584-5.447-3.211-6.301z" fill="#b4f5f2"/><path d="M157.73 109.283a2 2 0 0 0-1.932 1.481l-10.51 39.147a2 2 0 0 0 1.931 2.519h14.11a2 2 0 0 1 1.987 2.224l-3.775 33.404c-.25 2.213 2.759 3.117 3.77 1.133l26.261-51.566a2 2 0 0 0-1.782-2.907h-11.534a2 2 0 0 1-1.854-2.75l8.062-19.935a2 2 0 0 0-1.854-2.75h-22.88z" fill="#fff686"/></svg>