<svg xmlns="http://www.w3.org/2000/svg" width="240" height="240" fill="#fff" fill-rule="evenodd" xmlns:v="https://vecta.io/nano"><path d="M195 95.714l-.031 1.884c8.948 4.825 15.031 14.309 15.031 25.219 0 15.801-12.76 28.611-28.5 28.611h-41.925-.075-1.135l6.756-4.653a7.89 7.89 0 0 0 8.396.327 7.85 7.85 0 0 0 3.903-7.537c1.599-.938 1.649-.842 1.649-.842 3.758-2.164 5.047-6.971 2.875-10.724a7.89 7.89 0 0 0-10.75-2.879s-.176.136-1.704.898a7.89 7.89 0 0 0-8.347-.292 7.85 7.85 0 0 0-3.909 7.467l-7.359 4.453.083-8.761c2.616-1.277 4.416-3.956 4.416-7.057 0-3.137-1.848-5.847-4.517-7.104.039-1.377.018-1.88.018-1.88 0-4.328-3.53-7.845-7.875-7.845s-7.875 3.51-7.875 7.845c0 0 .02.166.007 1.884-2.664 1.259-4.506 3.964-4.506 7.1 0 3.148 1.86 5.865 4.544 7.117-.073 2.063-.045 8.701-.045 8.701s-5.874-3.459-7.353-4.506c.227-2.922-1.201-5.851-3.915-7.414-2.705-1.558-5.956-1.331-8.378.315-1.529-.769-1.673-.921-1.673-.921a7.89 7.89 0 0 0-10.75 2.88 7.84 7.84 0 0 0 2.875 10.724s.357-.001 1.642.894c-.256 2.945 1.173 5.909 3.909 7.485 2.726 1.569 6.006 1.327 8.433-.354.745.601 6.793 4.132 7.733 4.68H69c-21.539 0-39-17.529-39-39.151s17.461-39.151 39-39.151a38.71 38.71 0 0 1 18.018 4.419C94.522 55.697 115.185 40 139.5 40c30.652 0 55.5 24.944 55.5 55.714zm-76.269 80.155v-49.952h-1.086c-1.808 0-3.273-1.462-3.273-3.258s1.463-3.257 3.273-3.257h1.086v-5.438c0-1.795 1.467-3.25 3.269-3.25s3.269 1.464 3.269 3.25v5.438h1.086c1.808 0 3.273 1.462 3.273 3.257s-1.462 3.258-3.273 3.258h-1.086v49.952h1.086c1.808 0 3.273 1.462 3.273 3.258s-1.462 3.257-3.273 3.257h-1.086v5.438c0 1.795-1.467 3.249-3.269 3.249s-3.269-1.463-3.269-3.249v-5.438h-1.086c-1.808 0-3.273-1.462-3.273-3.257s1.463-3.258 3.273-3.258h1.086z"/><path d="M101.929 135.584l43.412 24.976.543-.938a3.28 3.28 0 0 1 4.468-1.195 3.25 3.25 0 0 1 1.194 4.453l-.543.937 4.726 2.719a3.25 3.25 0 0 1 1.19 4.446 3.28 3.28 0 0 1-4.459 1.197l-4.726-2.719-.543.937a3.28 3.28 0 0 1-4.468 1.196c-1.563-.9-2.099-2.892-1.194-4.454l.543-.937-43.413-24.976-.543.938a3.28 3.28 0 0 1-4.468 1.195 3.25 3.25 0 0 1-1.195-4.453l.543-.937-4.726-2.719a3.25 3.25 0 0 1-1.19-4.446 3.28 3.28 0 0 1 4.459-1.197l4.726 2.719.543-.937a3.28 3.28 0 0 1 4.468-1.196 3.25 3.25 0 0 1 1.195 4.453l-.543.938z"/><path d="M145.341 141.226l-43.412 24.976.543.937a3.26 3.26 0 0 1-1.195 4.454c-1.564.899-3.563.366-4.468-1.196l-.543-.937-4.726 2.719c-1.56.897-3.558.358-4.459-1.197s-.363-3.553 1.189-4.446l4.726-2.719-.543-.937c-.904-1.56-.366-3.555 1.195-4.453s3.563-.367 4.468 1.195l.543.938 43.413-24.976-.543-.938c-.904-1.559-.366-3.555 1.194-4.453s3.563-.366 4.468 1.196l.543.937 4.726-2.719c1.56-.897 3.558-.358 4.459 1.197s.362 3.553-1.19 4.446l-4.726 2.719.543.937c.904 1.56.366 3.555-1.194 4.453s-3.563.367-4.468-1.195l-.543-.938z"/></svg>