<svg xmlns="http://www.w3.org/2000/svg" width="240" height="240" fill="none" xmlns:v="https://vecta.io/nano"><path d="M194.969 97.599l.031-1.884C195 64.944 170.152 40 139.5 40c-24.315 0-44.978 15.697-52.482 37.547A38.71 38.71 0 0 0 69 73.127c-21.539 0-39 17.528-39 39.151s17.461 39.151 39 39.151h70.5.075H181.5c15.74 0 28.5-12.81 28.5-28.611 0-10.91-6.083-20.394-15.031-25.219z" fill="#fff"/><path fill-rule="evenodd" d="M57 165a5 5 0 0 1 5-5h115a5 5 0 1 1 0 10H62a5 5 0 0 1-5-5zm0 20a5 5 0 0 1 5-5h115a5 5 0 1 1 0 10H62a5 5 0 0 1-5-5zm5 15a5 5 0 1 0 0 10h115a5 5 0 1 0 0-10H62z" fill="#000" fill-opacity=".4"/></svg>