<svg xmlns="http://www.w3.org/2000/svg" width="240" height="240" fill="none" xmlns:v="https://vecta.io/nano"><path fill-rule="evenodd" d="M181 108c21.539 0 39-17.461 39-39s-17.461-39-39-39-39 17.461-39 39a5 5 0 1 0 10 0c0-16.016 12.984-29 29-29s29 12.984 29 29-12.984 29-29 29c-.342 0-.677.034-1 .1-.323-.066-.658-.1-1-.1H25a5 5 0 1 0 0 10h154c.342 0 .677-.034 1-.1.323.066.658.1 1 .1zM20 123a5 5 0 0 0 5 5h117c12.703 0 23 10.297 23 23s-10.297 23-23 23a5 5 0 1 0 0 10c18.225 0 33-14.775 33-33 0-16.577-12.223-30.299-28.148-32.646A5 5 0 0 0 145 118h-3H25a5 5 0 0 0-5 5zm5 15a5 5 0 1 0 0 10h91a5 5 0 1 0 0-10H25z" fill="#fff"/></svg>